<?xml version="1.0" encoding="UTF-8" standalone="no"?><!DOCTYPE svg PUBLIC "-//W3C//DTD SVG 1.1//EN" "http://www.w3.org/Graphics/SVG/1.1/DTD/svg11.dtd"><svg width="100%" height="100%" viewBox="0 0 64 64" version="1.1" xmlns="http://www.w3.org/2000/svg" xmlns:xlink="http://www.w3.org/1999/xlink" xml:space="preserve" xmlns:serif="http://www.serif.com/" style="fill-rule:evenodd;clip-rule:evenodd;stroke-linejoin:round;stroke-miterlimit:2;"><g id="bscscan-logo-circle"><path id="Path_1" d="M13.299,30.422c0.001,-1.487 1.225,-2.711 2.713,-2.711c0.004,-0 0.008,-0 0.012,-0l4.518,0.014c1.49,0 2.716,1.226 2.716,2.716l-0,17.084c0.509,-0.151 1.16,-0.312 1.877,-0.48c1.018,-0.24 1.744,-1.156 1.744,-2.203l0,-21.189c0,-1.49 1.226,-2.717 2.716,-2.717l4.532,0c1.49,0 2.716,1.227 2.716,2.717l-0,19.667c-0,0 1.133,-0.459 2.237,-0.925c0.837,-0.354 1.383,-1.178 1.384,-2.086l0,-23.447c0,-1.489 1.226,-2.715 2.715,-2.716l4.527,0c1.489,0.002 2.714,1.227 2.714,2.716l-0,19.308c3.924,-2.844 7.901,-6.265 11.058,-10.379c0.929,-1.211 1.19,-2.812 0.693,-4.256c-4.458,-12.825 -16.621,-21.475 -30.199,-21.475c-17.539,0 -31.972,14.433 -31.972,31.972c0,5.588 1.465,11.079 4.248,15.924c0.787,1.357 2.295,2.138 3.857,1.998c0.856,-0.075 1.923,-0.182 3.19,-0.33c1.137,-0.13 2.005,-1.102 2.006,-2.246l0,-16.956" style="fill:#12161c;fill-rule:nonzero;"/><path id="Path_2" d="M13.203,57.82c5.466,3.977 12.055,6.12 18.815,6.12c17.545,-0 31.982,-14.438 31.982,-31.983c-0,-0.002 -0,-0.004 -0,-0.006c-0,-0.738 -0.034,-1.464 -0.083,-2.189c-11.686,17.429 -33.263,25.577 -50.714,28.058" style="fill:#f0b90b;fill-rule:nonzero;"/></g></svg>