<?xml version="1.0" encoding="UTF-8" standalone="no"?><!DOCTYPE svg PUBLIC "-//W3C//DTD SVG 1.1//EN" "http://www.w3.org/Graphics/SVG/1.1/DTD/svg11.dtd"><svg width="100%" height="100%" viewBox="0 0 480 480" version="1.1" xmlns="http://www.w3.org/2000/svg" xmlns:xlink="http://www.w3.org/1999/xlink" xml:space="preserve" xmlns:serif="http://www.serif.com/" style="fill-rule:evenodd;clip-rule:evenodd;stroke-linejoin:round;stroke-miterlimit:2;"><circle cx="240" cy="240" r="240" style="fill:#fff;"/><clipPath id="_clip1"><rect id="crio.svg" x="53.503" y="25.76" width="372.994" height="428.481"/></clipPath><g clip-path="url(#_clip1)"><path d="M238.745,25.76l-185.242,107.004l-0,213.937l185.242,106.932l185.101,-106.932l-0,-213.937l-185.101,-107.004Zm130.259,289.241l-130.259,75.232l-130.329,-75.232l0,-150.609l130.329,-75.233l130.259,75.233l-0,150.609Z" style="fill:#002d74;fill-rule:nonzero;"/><path d="M238.746,453.633l185.1,-106.932l-0,-213.937l-185.1,-107.004l0,63.471l130.258,75.232l-0,150.609l-130.258,75.161l0,63.4Z" style="fill:url(#_Linear2);fill-rule:nonzero;"/><path d="M238.602,25.76l-185.099,106.932l-0,213.938l185.099,107.003l0,-63.471l-130.257,-75.233l-0,-150.609l130.257,-75.161l0,-63.399Z" style="fill:url(#_Linear3);fill-rule:nonzero;"/><path d="M325.13,289.684l-86.456,49.918l-86.528,-49.918l0,-99.904l86.528,-49.988l86.456,49.988l-35.988,20.798l-50.468,-29.189l-50.469,29.189l0,58.236l50.469,29.19l50.468,-29.19l35.988,20.87Z" style="fill:#002d74;fill-rule:nonzero;"/></g><defs><linearGradient id="_Linear2" x1="0" y1="0" x2="1" y2="0" gradientUnits="userSpaceOnUse" gradientTransform="matrix(1.30999e-14,-213.937,213.937,1.30999e-14,331.295,453.633)"><stop offset="0" style="stop-color:#002d74;stop-opacity:1"/><stop offset="1" style="stop-color:#002d74;stop-opacity:0"/></linearGradient><linearGradient id="_Linear3" x1="0" y1="0" x2="1" y2="0" gradientUnits="userSpaceOnUse" gradientTransform="matrix(1.30998e-14,213.936,-213.936,1.30998e-14,146.053,25.7596)"><stop offset="0" style="stop-color:#002d74;stop-opacity:1"/><stop offset="1" style="stop-color:#002d74;stop-opacity:0"/></linearGradient></defs></svg>