<?xml version="1.0" encoding="UTF-8" standalone="no"?><!DOCTYPE svg PUBLIC "-//W3C//DTD SVG 1.1//EN" "http://www.w3.org/Graphics/SVG/1.1/DTD/svg11.dtd"><svg width="100%" height="100%" viewBox="0 0 64 64" version="1.1" xmlns="http://www.w3.org/2000/svg" xmlns:xlink="http://www.w3.org/1999/xlink" xml:space="preserve" xmlns:serif="http://www.serif.com/" style="fill-rule:evenodd;clip-rule:evenodd;stroke-linejoin:round;stroke-miterlimit:2;"><path d="M64,32c0,-17.661 -14.339,-32 -32,-32c-17.661,0 -32,14.339 -32,32c0,17.661 14.339,32 32,32c17.661,0 32,-14.339 32,-32Z" style="fill:#fcfcfd;"/><g><path d="M33.013,12.59c-0.898,-0.362 -1.839,-0.543 -2.824,-0.543c-0.984,0 -1.933,0.181 -2.845,0.543c-0.898,0.347 -1.701,0.86 -2.411,1.538c-0.397,0.38 -0.749,0.807 -1.055,1.282l-0,-3.023l-12.619,-0l-0,3.732l4.278,-0l0,11.355l4.062,-0l-0,-11.355l3.872,-0c-0.081,0.161 -0.159,0.327 -0.232,0.497c-0.405,0.981 -0.608,2.097 -0.608,3.348c-0,1.252 0.203,2.368 0.608,3.348c0.42,0.98 0.985,1.809 1.694,2.488c0.71,0.679 1.513,1.199 2.411,1.561c0.912,0.347 1.861,0.52 2.845,0.52c0.985,-0 1.926,-0.173 2.824,-0.52c0.912,-0.362 1.723,-0.882 2.432,-1.561c0.71,-0.679 1.267,-1.508 1.673,-2.488c0.42,-0.98 0.63,-2.096 0.63,-3.348c-0,-1.251 -0.21,-2.367 -0.63,-3.348c-0.406,-0.98 -0.963,-1.809 -1.673,-2.488c-0.709,-0.678 -1.52,-1.191 -2.432,-1.538Zm-4.561,3.936c0.507,-0.347 1.086,-0.52 1.737,-0.52c0.652,-0 1.231,0.173 1.738,0.52c0.521,0.347 0.927,0.822 1.216,1.425c0.29,0.588 0.435,1.259 0.435,2.013c-0,0.754 -0.145,1.433 -0.435,2.036c-0.289,0.588 -0.695,1.056 -1.216,1.402c-0.507,0.347 -1.086,0.521 -1.738,0.521c-0.651,-0 -1.23,-0.174 -1.737,-0.521c-0.507,-0.346 -0.912,-0.814 -1.217,-1.402c-0.289,-0.603 -0.434,-1.282 -0.434,-2.036c0,-0.754 0.145,-1.425 0.434,-2.013c0.305,-0.603 0.71,-1.078 1.217,-1.425Z" style="fill:#141416;"/><path d="M37.183,37.419l-0,-9.206l-4.062,-0l0,8.912c0,0.784 -0.202,1.425 -0.608,1.923c-0.405,0.482 -1.042,0.731 -1.911,0.746c-0.869,0.015 -1.506,-0.226 -1.911,-0.724c-0.406,-0.513 -0.608,-1.161 -0.608,-1.945l-0,-8.912l-4.062,-0l0,9.206c0,1.312 0.297,2.443 0.891,3.393c0.593,0.95 1.39,1.681 2.389,2.194c0.999,0.498 2.099,0.746 3.301,0.746c1.216,0 2.317,-0.248 3.301,-0.746c0.999,-0.513 1.796,-1.244 2.389,-2.194c0.594,-0.95 0.891,-2.081 0.891,-3.393Z" style="fill:#141416;fill-rule:nonzero;"/><path d="M21.901,38.301l0,-3.732l-5.169,-0l0,-2.579l6.255,0l0,-3.732l-10.317,-0l0,15.155l4.062,0l0,-5.112l5.169,0Z" style="fill:#141416;fill-rule:nonzero;"/><path d="M46.682,37.847l-3.584,0l-0,-5.383l-4.909,-0l0,-4.23l14.552,-0l0,23.719l-3.583,-0l-0,-4.456l-10.903,-0l-0,-4.23l10.903,-0l-0,-10.803l-2.476,-0l-0,5.383Z" style="fill:#141416;fill-rule:nonzero;"/><path d="M38.188,26.228l14.553,0l0,-3.823l-7.493,0l7.493,-8.527l0,-1.493l-14.553,0l-0,3.913l6.93,0l-6.93,8.437l-0,1.493Z" style="fill:#141416;fill-rule:nonzero;"/></g></svg>